<svg width="134" height="134" viewBox="0 0 134 134" fill="none" xmlns="http://www.w3.org/2000/svg">
<path d="M90.4587 39.1199L128.646 44.7131C131.811 45.1767 133.071 49.0681 130.776 51.2978L103.111 78.2077C102.2 79.0921 101.784 80.3705 101.996 81.622L108.479 119.67C109.015 122.824 105.705 125.223 102.875 123.733L68.732 105.734C67.609 105.142 66.2664 105.139 65.1408 105.731L30.9574 123.653C28.1246 125.137 24.8175 122.731 25.3615 119.579L31.9275 81.547C32.1446 80.2954 31.7292 79.0171 30.8207 78.13L3.2167 51.1531C0.927987 48.918 2.1983 45.0293 5.36338 44.5737L43.5641 39.0663C44.821 38.8841 45.9091 38.0962 46.4719 36.9598L63.5917 2.36912C65.0094 -0.498475 69.1018 -0.493115 70.5142 2.37716L87.5563 37.0081C88.1164 38.1444 89.2018 38.935 90.4587 39.1199Z" fill="#FFCB05"/>
<path d="M128.648 44.713L90.458 39.1198C89.2011 38.9349 88.1157 38.1443 87.5556 37.0053L70.5135 2.37702C69.7979 0.921782 68.3963 0.211583 67 0.230343V105.305C67.595 105.316 68.1899 105.45 68.7313 105.734L102.874 123.733C105.705 125.225 109.014 122.824 108.478 119.67L101.995 81.622C101.781 80.3704 102.199 79.092 103.11 78.2076L130.778 51.2978C133.07 49.068 131.81 45.1766 128.648 44.713Z" fill="#F1B91B"/>
<path d="M67.3742 133.78H66.6292C65.718 133.78 64.9783 133.04 64.9783 132.128V114.867C64.9783 113.956 65.718 113.217 66.6292 113.217H67.3742C68.2854 113.217 69.0251 113.956 69.0251 114.867V132.128C69.0251 133.04 68.2854 133.78 67.3742 133.78Z" fill="#FFCB05"/>
<path d="M4.71299 88.0377L4.51199 87.3195C4.26811 86.4405 4.78267 85.5319 5.65903 85.2881L22.2911 80.6624C23.1702 80.4185 24.0787 80.9331 24.3226 81.8094L24.5236 82.5277C24.7675 83.4067 24.2529 84.3152 23.3765 84.5591L6.74443 89.1848C5.86539 89.4287 4.95687 88.9141 4.71299 88.0377Z" fill="#FFCB05"/>
<path d="M129.289 88.0377L129.49 87.3195C129.734 86.4405 129.22 85.5319 128.343 85.2881L111.711 80.6624C110.832 80.4185 109.924 80.9331 109.68 81.8094L109.479 82.5277C109.235 83.4067 109.749 84.3152 110.626 84.5591L127.258 89.1848C128.136 89.4287 129.045 88.9141 129.289 88.0377Z" fill="#F1B91B"/>
<path d="M67 113.217V133.778C68.1176 133.778 69.0234 132.871 69.0234 131.754V115.24C69.0234 114.122 68.1176 113.217 67 113.217Z" fill="#F1B91B"/>
<path d="M23.7687 18.8138L24.2967 18.2859C24.9399 17.6427 25.9851 17.6427 26.6283 18.2859L38.8357 30.4933C39.4789 31.1365 39.4789 32.1817 38.8357 32.8249L38.3077 33.3528C37.6645 33.996 36.6193 33.996 35.9761 33.3528L23.7687 21.1481C23.1228 20.5022 23.1228 19.4597 23.7687 18.8138Z" fill="#FFCB05"/>
<path d="M110.231 18.8138L109.703 18.2859C109.059 17.6427 108.014 17.6427 107.371 18.2859L95.1636 30.4933C94.5204 31.1365 94.5204 32.1817 95.1636 32.8249L95.6915 33.3528C96.3347 33.996 97.3799 33.996 98.0231 33.3528L110.231 21.1454C110.876 20.5022 110.876 19.4597 110.231 18.8138Z" fill="#F1B91B"/>
</svg>
